<svg width="40" height="40" viewBox="0 0 40 40" fill="none" xmlns="http://www.w3.org/2000/svg"> <g clip-path="url(#clip0_285_127)"> <path d="M12.6413 40.4364C16.3213 40.4364 19.3079 37.4497 19.3079 33.7697V27.103H12.6413C8.96128 27.103 5.97461 30.0897 5.97461 33.7697C5.97461 37.4497 8.96128 40.4364 12.6413 40.4364Z" fill="#0ACF83"/> <path d="M5.97461 20.4364C5.97461 16.7564 8.96128 13.7698 12.6413 13.7698H19.3079V27.1031H12.6413C8.96128 27.1031 5.97461 24.1164 5.97461 20.4364Z" fill="#A259FF"/> <path d="M5.97461 7.10307C5.97461 3.42307 8.96128 0.436401 12.6413 0.436401H19.3079V13.7697H12.6413C8.96128 13.7697 5.97461 10.7831 5.97461 7.10307Z" fill="#F24E1E"/> <path d="M19.3079 0.436401H25.9745C29.6545 0.436401 32.6412 3.42307 32.6412 7.10307C32.6412 10.7831 29.6545 13.7697 25.9745 13.7697H19.3079V0.436401Z" fill="#FF7262"/> <path d="M32.6412 20.4364C32.6412 24.1164 29.6545 27.1031 25.9745 27.1031C22.2945 27.1031 19.3079 24.1164 19.3079 20.4364C19.3079 16.7564 22.2945 13.7698 25.9745 13.7698C29.6545 13.7698 32.6412 16.7564 32.6412 20.4364Z" fill="#1ABCFE"/> </g> <defs> <clipPath id="clip0_285_127"> <rect width="40" height="40" fill="white"/> </clipPath> </defs> </svg>
