<svg width="40" height="40" viewBox="0 0 40 40" fill="none" xmlns="http://www.w3.org/2000/svg">
<path d="M20 23.1104C21.9725 23.1104 23.5714 21.5114 23.5714 19.539C23.5714 17.5665 21.9725 15.9675 20 15.9675C18.0276 15.9675 16.4286 17.5665 16.4286 19.539C16.4286 21.5114 18.0276 23.1104 20 23.1104Z" fill="#00D8FF"/>
<path d="M20 27.7276C15.7073 27.8314 11.4254 27.2528 7.31429 26.0133C5.41517 25.4113 3.64391 24.4629 2.09 23.2162C1.49704 22.7902 1.00325 22.2411 0.642489 21.6064C0.281732 20.9717 0.0625566 20.2664 0 19.539C0 17.1776 2.59429 14.8633 6.94 13.349C11.161 12.0072 15.5713 11.3569 20 11.4233C24.3696 11.3623 28.7208 12.0008 32.8886 13.3147C34.7176 13.8978 36.4288 14.8003 37.9429 15.9805C38.5257 16.3865 39.0121 16.9158 39.3676 17.5307C39.7231 18.1457 39.939 18.8313 40 19.539C40 21.9933 37.1 24.4805 32.4286 26.0262C28.397 27.2253 24.2055 27.7991 20 27.7276ZM20 13.1319C15.763 13.0753 11.544 13.6935 7.50143 14.9633C3.50143 16.359 1.70857 18.2676 1.70857 19.5347C1.70857 20.8605 3.63571 22.9447 7.86714 24.3919C11.8001 25.5717 15.8952 26.1209 20 26.019C24.0234 26.091 28.0342 25.5466 31.8929 24.4047C36.2857 22.949 38.2857 20.8619 38.2857 19.539C38.2136 19.0851 38.0482 18.651 37.7999 18.2642C37.5515 17.8774 37.2256 17.5463 36.8429 17.2919C35.4882 16.2449 33.9596 15.4451 32.3271 14.929C28.34 13.6773 24.1785 13.0706 20 13.1319Z" fill="#00D8FF"/>
<path d="M11.8857 37.3517C11.2193 37.367 10.5607 37.2053 9.97713 36.8832C7.93141 35.7032 7.22284 32.3003 8.08141 27.7789C9.02805 23.4519 10.6683 19.3064 12.9386 15.5032C15.0682 11.6876 17.7945 8.23732 21.0143 5.28315C22.4331 3.98988 24.0698 2.95822 25.8486 2.23601C26.4919 1.9345 27.1938 1.7782 27.9043 1.7782C28.6148 1.7782 29.3166 1.9345 29.96 2.23601C32.0871 3.46173 32.7914 7.21601 31.7986 12.0346C30.8227 16.1268 29.2251 20.0452 27.0614 23.6532C25.0067 27.4237 22.3662 30.8439 19.2386 33.786C17.7682 35.13 16.0619 36.1902 14.2057 36.9132C13.4626 37.189 12.6782 37.3372 11.8857 37.3517ZM14.4186 16.3517C12.253 19.9936 10.6809 23.957 9.76141 28.0932C8.97141 32.2574 9.72998 34.7617 10.8328 35.3989C11.9757 36.0603 14.75 35.4332 18.1186 32.4903C21.1043 29.6717 23.6246 26.3977 25.5857 22.7903C27.6585 19.341 29.191 15.5948 30.13 11.6817C31.0643 7.14601 30.2571 4.36887 29.1114 3.70887C28.682 3.54434 28.2231 3.47068 27.7638 3.49257C27.3045 3.51445 26.8547 3.6314 26.4428 3.83601C24.8595 4.48936 23.4039 5.41691 22.1428 6.57601C19.0667 9.40571 16.4624 12.7088 14.4286 16.3603L14.4186 16.3517Z" fill="#00D8FF"/>
<path d="M28.11 37.3703C26.1742 37.3703 23.7157 36.1989 21.1557 33.9975C17.8795 31.0164 15.1071 27.5252 12.9457 23.6589C10.7039 19.908 9.07663 15.8225 8.12567 11.5575C7.71326 9.68104 7.63684 7.74633 7.89996 5.8432C7.96079 5.13721 8.17576 4.45316 8.52972 3.83929C8.88368 3.22542 9.368 2.69667 9.94853 2.29034C12.0728 1.06034 15.6771 2.32463 19.3557 5.59034C22.4137 8.47918 25.0105 11.8199 27.0557 15.4961C29.2961 19.1594 30.9404 23.1554 31.9271 27.3346C32.3573 29.2799 32.4236 31.288 32.1228 33.2575C32.0512 33.9838 31.8235 34.686 31.4551 35.316C31.0867 35.946 30.5864 36.4889 29.9885 36.9075C29.4145 37.2257 28.7661 37.3854 28.11 37.3703ZM14.4242 22.7989C16.4977 26.4938 19.1461 29.8351 22.27 32.6975C25.4828 35.4618 28.0314 36.0561 29.1271 35.4118C30.27 34.7475 31.1128 32.0361 30.2442 27.6489C29.2926 23.6588 27.7155 19.8445 25.5714 16.3475C23.6197 12.8291 21.141 9.63014 18.2214 6.86177C14.7585 3.78748 11.95 3.10034 10.8057 3.7632C10.449 4.05303 10.1563 4.41366 9.94611 4.82232C9.73588 5.23098 9.61266 5.6788 9.58424 6.13748C9.35711 7.83475 9.4311 9.55877 9.80282 11.2303C10.7175 15.3091 12.2782 19.2155 14.4257 22.8018L14.4242 22.7989Z" fill="#00D8FF"/>
</svg>