<svg width="40" height="40" viewBox="0 0 40 40" fill="none" xmlns="http://www.w3.org/2000/svg">
<g clip-path="url(#clip0_328_1407)">
<path d="M34.3746 4.9901C32.6069 2.43116 29.9292 0.643381 26.8882 -0.00827833C23.8471 -0.659937 20.672 -0.126331 18.011 1.48361L8.66032 7.32776C7.40634 8.11835 6.33123 9.16203 5.50379 10.392C4.67635 11.622 4.11482 13.0112 3.85512 14.4706C3.42138 16.9574 3.83287 19.5177 5.02396 21.7433C4.1892 22.9543 3.61435 24.3251 3.33564 25.7693C3.07854 27.2559 3.1183 28.7787 3.45265 30.2498C3.787 31.7209 4.40931 33.1113 5.2837 34.3407C9.04993 39.6654 16.3227 41.2239 21.6473 37.8472L30.998 31.8732C32.252 31.0826 33.3271 30.039 34.1545 28.809C34.9819 27.579 35.5435 26.1898 35.8032 24.7304C36.2073 22.2857 35.7967 19.7759 34.6343 17.5875C35.4691 16.3765 36.0439 15.0057 36.3227 13.5615C36.5798 12.0749 36.54 10.5522 36.2056 9.08104C35.8713 7.6099 35.249 6.21952 34.3746 4.9901Z" fill="#FF3E00"/>
<path d="M17.1018 34.8603C14.1148 35.6395 10.8681 34.4707 9.17975 31.8733C8.6497 31.1284 8.27335 30.2854 8.07267 29.3935C7.87198 28.5016 7.85099 27.5786 8.01092 26.6785C8.03835 26.4163 8.08173 26.1561 8.14079 25.8993L8.40053 25.3798L8.92001 25.6395C10.0194 26.4489 11.2493 27.0638 12.5564 27.4577L12.8161 27.5876V27.9772C12.7971 28.4415 12.9343 28.8987 13.2057 29.2759C13.4571 29.6467 13.8154 29.9322 14.2329 30.0946C14.6505 30.257 15.1075 30.2885 15.5434 30.185C15.773 30.1357 15.9925 30.0479 16.1927 29.9252L25.4135 24.0811C25.6476 23.9404 25.8495 23.7521 26.0061 23.5284C26.1628 23.3046 26.2706 23.0505 26.3226 22.7824C26.3643 22.5097 26.3514 22.2315 26.2845 21.964C26.2176 21.6964 26.0981 21.4448 25.933 21.2239C25.6816 20.8531 25.3233 20.5676 24.9058 20.4052C24.4883 20.2428 24.0312 20.2113 23.5953 20.3148C23.4109 20.3767 23.236 20.4641 23.0759 20.5746L19.4395 22.7824C18.8828 23.1754 18.2698 23.4819 17.6213 23.6915C14.6343 24.4707 11.3875 23.172 9.69923 20.7045C9.16918 19.9596 8.79283 19.1166 8.59215 18.2246C8.39146 17.3327 8.37047 16.4098 8.5304 15.5096C8.68165 14.6356 9.01395 13.8028 9.50598 13.0648C9.99802 12.3267 10.6389 11.6997 11.3875 11.2239L20.7382 5.24991C21.3027 4.90233 21.9154 4.63977 22.5564 4.47068C25.5434 3.69146 28.7901 4.8603 30.4785 7.32783C31.0085 8.0727 31.3849 8.91571 31.5855 9.80763C31.7862 10.6995 31.8072 11.6225 31.6473 12.5226C31.6251 12.8283 31.5817 13.1321 31.5174 13.4317L31.2577 13.9512L30.7382 13.5616C29.6388 12.7522 28.4089 12.1373 27.1018 11.7434H26.8421V11.3538C26.892 10.8459 26.7534 10.3374 26.4525 9.92523C26.2011 9.55442 25.8428 9.26886 25.4253 9.10649C25.0077 8.94411 24.5507 8.9126 24.1148 9.01614C23.8852 9.06541 23.6657 9.15323 23.4655 9.27588L14.2447 15.2499C14.0106 15.3906 13.8087 15.5789 13.6521 15.8026C13.4954 16.0263 13.3876 16.2805 13.3356 16.5486C13.2939 16.8212 13.3068 17.0994 13.3737 17.367C13.4406 17.6346 13.5601 17.8861 13.7252 18.107C13.9766 18.4779 14.3349 18.7634 14.7524 18.9258C15.1699 19.0882 15.627 19.1197 16.0629 19.0161C16.2473 18.9543 16.4222 18.8669 16.5823 18.7564L20.2187 16.5486C20.7754 16.1556 21.3884 15.8491 22.0369 15.6395C25.0239 14.8603 28.2707 16.0291 29.959 18.6265C30.489 19.3714 30.8654 20.2144 31.0661 21.1063C31.2667 21.9983 31.2877 22.9212 31.1278 23.8213C30.9766 24.6954 30.6443 25.5281 30.1522 26.2662C29.6602 27.0042 29.0193 27.6313 28.2707 28.107L18.92 33.9512C18.3633 34.3442 17.7503 34.6507 17.1018 34.8603Z" fill="white"/>
</g>
<defs>
<clipPath id="clip0_328_1407">
<rect width="40" height="40" fill="white"/>
</clipPath>
</defs>
</svg>
