<svg width="40" height="40" viewBox="0 0 40 40" fill="none" xmlns="http://www.w3.org/2000/svg">
<g clip-path="url(#clip0_675_9)">
<path d="M0 20V40H40V0H0V20Z" fill="#007ACC"/>
<path d="M8.84542 20.1328L8.83276 21.7708H14.039V36.5645H17.7218V21.7708H22.9281V20.1645C22.9281 19.2755 22.909 18.5327 22.8837 18.5136C22.8646 18.4883 19.6964 18.4755 15.8551 18.4819L8.86464 18.5009L8.84558 20.1327L8.84542 20.1328ZM32.276 18.4544C33.2918 18.7084 34.0665 19.1591 34.7776 19.8956C35.1459 20.2894 35.6918 21.0069 35.7364 21.1783C35.7489 21.2291 34.0093 22.3973 32.9554 23.0513C32.9173 23.0767 32.7648 22.9116 32.5934 22.6575C32.0792 21.9084 31.5395 21.5845 30.714 21.5275C29.5015 21.4448 28.7204 22.0798 28.7268 23.14C28.7268 23.4513 28.7712 23.6353 28.8982 23.8894C29.165 24.4417 29.6601 24.7719 31.2157 25.4448C34.0792 26.6767 35.3045 27.4894 36.0665 28.6448C36.9173 29.9339 37.1078 31.9909 36.53 33.5211C35.8951 35.1845 34.3206 36.3148 32.1045 36.6894C31.4189 36.81 29.7935 36.7909 29.057 36.6577C27.4507 36.3719 25.9268 35.5783 24.9871 34.537C24.6189 34.1306 23.9014 33.0703 23.9459 32.9941C23.965 32.9688 24.13 32.8672 24.314 32.7592C24.4918 32.6577 25.165 32.2702 25.7998 31.902L26.949 31.2353L27.1903 31.5909C27.5268 32.1052 28.2632 32.81 28.7078 33.0448C29.9839 33.718 31.7364 33.6227 32.5998 32.848C32.9681 32.5116 33.1204 32.1623 33.1204 31.648C33.1204 31.1845 33.0632 30.9814 32.822 30.6323C32.511 30.1878 31.876 29.8131 30.0728 29.0323C28.0093 28.1433 27.1204 27.5909 26.3078 26.7147C25.8379 26.2069 25.3934 25.3941 25.2093 24.7147C25.057 24.1497 25.0187 22.7338 25.1395 22.1623C25.565 20.1686 27.0696 18.7783 29.241 18.3655C29.9457 18.2322 31.5839 18.2828 32.276 18.4544Z" fill="white"/>
</g>
<defs>
<clipPath id="clip0_675_9">
<rect width="40" height="40" fill="white"/>
</clipPath>
</defs>
</svg>
