<svg width="40" height="40" viewBox="0 0 40 40" fill="none" xmlns="http://www.w3.org/2000/svg">
<g clip-path="url(#clip0_285_119)">
<mask id="mask0_285_119" style="mask-type:luminance" maskUnits="userSpaceOnUse" x="-1" y="0" width="41" height="41">
<path d="M39.5571 0.404297H-0.442871V40.4043H39.5571V0.404297Z" fill="white"/>
</mask>
<g mask="url(#mask0_285_119)">
<path fill-rule="evenodd" clip-rule="evenodd" d="M25.0271 3.36191C25.3308 3.73893 25.4857 4.24774 25.7955 5.26532L32.5623 27.4949C30.0605 26.197 27.3407 25.2609 24.4722 24.7559L20.0662 9.86674C19.9941 9.62309 19.7703 9.45597 19.5163 9.45597C19.2616 9.45597 19.0374 9.62397 18.9659 9.86845L14.6133 24.7484C11.7315 25.2512 8.99922 26.1889 6.48657 27.4916L13.2867 5.26016C13.5975 4.24435 13.7528 3.73645 14.0566 3.36008C14.3247 3.02782 14.6735 2.76978 15.0696 2.61054C15.5184 2.43018 16.0495 2.43018 17.1118 2.43018H21.9688C23.0325 2.43018 23.5643 2.43018 24.0135 2.61092C24.41 2.77049 24.759 3.02905 25.0271 3.36191Z" fill="url(#paint0_linear_285_119)"/>
<path fill-rule="evenodd" clip-rule="evenodd" d="M25.8369 28.5529C24.7213 29.5068 22.4947 30.1574 19.9299 30.1574C16.782 30.1574 14.1436 29.1774 13.4435 27.8594C13.1932 28.6147 13.1371 29.4792 13.1371 30.0315C13.1371 30.0315 12.9722 32.7431 14.8583 34.6292C14.8583 33.6498 15.6522 32.8563 16.6316 32.8563C18.3102 32.8563 18.3083 34.3205 18.3067 35.5089C18.3067 35.5443 18.3067 35.5795 18.3067 35.6147C18.3067 37.4182 19.4088 38.964 20.9764 39.616C20.7423 39.1343 20.6109 38.5934 20.6109 38.0221C20.6109 36.3021 21.6207 35.6614 22.7943 34.9172C23.728 34.325 24.7655 33.6672 25.4805 32.3471C25.8536 31.6584 26.0654 30.8698 26.0654 30.0315C26.0654 29.516 25.9853 29.0192 25.8369 28.5529Z" fill="#FF5D01"/>
<path fill-rule="evenodd" clip-rule="evenodd" d="M25.8369 28.5529C24.7213 29.5068 22.4947 30.1574 19.9299 30.1574C16.782 30.1574 14.1436 29.1774 13.4435 27.8594C13.1932 28.6147 13.1371 29.4792 13.1371 30.0315C13.1371 30.0315 12.9722 32.7431 14.8583 34.6292C14.8583 33.6498 15.6522 32.8563 16.6316 32.8563C18.3102 32.8563 18.3083 34.3205 18.3067 35.5089C18.3067 35.5443 18.3067 35.5795 18.3067 35.6147C18.3067 37.4182 19.4088 38.964 20.9764 39.616C20.7423 39.1343 20.6109 38.5934 20.6109 38.0221C20.6109 36.3021 21.6207 35.6614 22.7943 34.9172C23.728 34.325 24.7655 33.6672 25.4805 32.3471C25.8536 31.6584 26.0654 30.8698 26.0654 30.0315C26.0654 29.516 25.9853 29.0192 25.8369 28.5529Z" fill="url(#paint1_linear_285_119)"/>
</g>
</g>
<defs>
<linearGradient id="paint0_linear_285_119" x1="27.1508" y1="1.25158" x2="19.5245" y2="27.495" gradientUnits="userSpaceOnUse">
<stop stop-color="#000014"/>
<stop offset="1" stop-color="#150426"/>
</linearGradient>
<linearGradient id="paint1_linear_285_119" x1="30.8597" y1="20.7934" x2="24.2548" y2="34.6201" gradientUnits="userSpaceOnUse">
<stop stop-color="#FF1639"/>
<stop offset="1" stop-color="#FF1639" stop-opacity="0"/>
</linearGradient>
<clipPath id="clip0_285_119">
<rect width="40" height="40" fill="white"/>
</clipPath>
</defs>
</svg>