<svg width="40" height="40" viewBox="0 0 41 41" fill="none" xmlns="http://www.w3.org/2000/svg">
<path d="M0.518555 0.651978H40.5186V40.652H0.518555V0.651978Z" fill="#F7DF1E"/>
<path d="M11.0361 34.0789L14.0972 32.2264C14.6877 33.2735 15.2249 34.1594 16.5135 34.1594C17.7486 34.1594 18.5274 33.6762 18.5274 31.7968V19.0159H22.2864V31.85C22.2864 35.7433 20.0042 37.5154 16.6746 37.5154C13.6676 37.5154 11.922 35.958 11.036 34.0786" fill="black"/>
<path d="M24.3281 33.6761L27.3888 31.904C28.1945 33.2198 29.2417 34.1863 31.0943 34.1863C32.6518 34.1863 33.645 33.4076 33.645 32.3335C33.645 31.0447 32.6248 30.5882 30.9063 29.8366L29.9668 29.4336C27.2547 28.2793 25.4557 26.8293 25.4557 23.7683C25.4557 20.949 27.6037 18.8009 30.9601 18.8009C33.3498 18.8009 35.0683 19.6333 36.3032 21.8083L33.3765 23.6877C32.7321 22.5332 32.0342 22.0768 30.9602 22.0768C29.8593 22.0768 29.1611 22.7749 29.1611 23.6877C29.1611 24.8154 29.8593 25.272 31.4702 25.9702L32.4098 26.3729C35.6051 27.7424 37.4041 29.1384 37.4041 32.2798C37.4041 35.6632 34.746 37.5157 31.1749 37.5157C27.6844 37.5157 25.4288 35.8511 24.3281 33.6761Z" fill="black"/>
</svg>
