<svg width="33" height="32" viewBox="0 0 33 32" fill="none" xmlns="http://www.w3.org/2000/svg">
<g clip-path="url(#clip0_526_69)">
<path d="M30.13 0.00112915H2.862C1.56 0.00112915 0.5 1.03413 0.5 2.30613V29.6901C0.5 30.9651 1.56 32.0001 2.862 32.0001H30.132C31.437 32.0001 32.5 30.9651 32.5 29.6901V2.30613C32.5 1.03413 31.437 0.00112915 30.13 0.00112915Z" fill="#0177B5"/>
<path d="M5.24484 11.997H9.99984V27.267H5.24484V11.997ZM7.61884 4.397C9.13584 4.397 10.3688 5.63 10.3688 7.147C10.3688 8.664 9.13584 9.9 7.61984 9.9C6.8901 9.89842 6.19068 9.6079 5.67458 9.09198C5.15847 8.57606 4.86769 7.87675 4.86584 7.147C4.86584 6.78562 4.93707 6.42777 5.07546 6.09393C5.21385 5.76009 5.41668 5.4568 5.67236 5.2014C5.92804 4.946 6.23155 4.7435 6.56554 4.60547C6.89954 4.46745 7.25746 4.39661 7.61884 4.397ZM12.9688 11.997H17.5208V14.084H17.5838C18.2178 12.884 19.7658 11.618 22.0838 11.618C26.8898 11.618 27.7768 14.781 27.7768 18.892V27.268H23.0338V19.84C23.0338 18.07 23.0018 15.79 20.5678 15.79C18.0978 15.79 17.7178 17.72 17.7178 19.71V27.264H12.9758V11.994L12.9688 11.997Z" fill="white"/>
</g>
<defs>
<clipPath id="clip0_526_69">
<rect width="32" height="32" fill="white" transform="translate(0.5)"/>
</clipPath>
</defs>
</svg>
