<svg width="512" height="512" viewBox="0 0 512 512" fill="none" xmlns="http://www.w3.org/2000/svg">
<g clip-path="url(#clip0_580_266)">
<rect x="352" y="96" width="160" height="64" rx="5" fill="#FFFF00"/>
<path d="M154.343 204.9C156.323 206.88 157.313 207.87 158.455 208.241C159.459 208.567 160.541 208.567 161.545 208.241C162.687 207.87 163.677 206.88 165.657 204.9L272.214 98.3431C273.078 97.4784 273.511 97.046 274.015 96.7368C274.463 96.4627 274.95 96.2606 275.46 96.1382C276.036 96 276.647 96 277.87 96H312C314.8 96 316.2 96 317.27 96.545C318.211 97.0243 318.976 97.7892 319.455 98.73C320 99.7996 320 101.2 320 104V155.063C320 156.286 320 156.898 319.862 157.473C319.739 157.983 319.537 158.471 319.263 158.918C318.954 159.423 318.522 159.855 317.657 160.72L175.41 302.967C174.545 303.832 174.112 304.264 173.608 304.574C173.16 304.848 172.673 305.05 172.163 305.172C171.587 305.31 170.976 305.31 169.753 305.31H150.247C149.024 305.31 148.413 305.31 147.837 305.172C147.327 305.05 146.84 304.848 146.392 304.574C145.888 304.264 145.455 303.832 144.59 302.967L2.34315 160.72C1.47839 159.855 1.04601 159.423 0.736799 158.918C0.462656 158.471 0.260634 157.983 0.13815 157.473C0 156.898 0 156.286 0 155.063V104C0 101.2 0 99.7996 0.544967 98.73C1.02433 97.7892 1.78924 97.0243 2.73005 96.545C3.79961 96 5.19974 96 8 96H42.1297C43.3526 96 43.9641 96 44.5395 96.1382C45.0497 96.2606 45.5374 96.4627 45.9848 96.7368C46.4894 97.046 46.9217 97.4784 47.7865 98.3431L154.343 204.9Z" fill="#FFFF00"/>
<path d="M256 292.755C256 291.532 256 290.921 256.138 290.346C256.261 289.835 256.463 289.348 256.737 288.9C257.046 288.396 257.478 287.963 258.343 287.099L306.343 239.099C310.627 234.815 312.769 232.673 314.608 232.528C316.203 232.403 317.763 233.048 318.802 234.266C320 235.668 320 238.697 320 244.755V408C320 410.8 320 412.2 319.455 413.27C318.976 414.211 318.211 414.976 317.27 415.455C316.2 416 314.8 416 312 416H264C261.2 416 259.8 416 258.73 415.455C257.789 414.976 257.024 414.211 256.545 413.27C256 412.2 256 410.8 256 408V292.755Z" fill="#FFFF00"/>
<path d="M64 292.096C64 290.873 64 290.262 63.8619 289.686C63.7394 289.176 63.5373 288.688 63.2632 288.241C62.954 287.737 62.5216 287.304 61.6569 286.439L13.6568 238.439C9.37309 234.156 7.23121 232.014 5.3923 231.869C3.7967 231.743 2.23743 232.389 1.19797 233.606C0 235.009 0 238.038 0 244.096V408C0 410.8 0 412.2 0.544967 413.27C1.02433 414.211 1.78924 414.976 2.73005 415.455C3.79961 416 5.19974 416 8 416H56C58.8003 416 60.2004 416 61.2699 415.455C62.2108 414.976 62.9757 414.211 63.455 413.27C64 412.2 64 410.8 64 408L64 292.096Z" fill="#BDBDBD"/>
<path d="M416 257.042C416 258.309 416 258.942 416.147 259.536C416.278 260.062 416.494 260.563 416.785 261.021C417.114 261.536 417.574 261.972 418.493 262.844L509.507 349.227C510.426 350.099 510.886 350.535 511.215 351.051C511.506 351.508 511.722 352.009 511.853 352.535C512 353.129 512 353.763 512 355.029V408C512 410.8 512 412.2 511.455 413.27C510.976 414.211 510.211 414.976 509.27 415.455C508.2 416 506.8 416 504 416H360C357.2 416 355.8 416 354.73 415.455C353.789 414.976 353.024 414.211 352.545 413.27C352 412.2 352 410.8 352 408V360C352 357.2 352 355.8 352.545 354.73C353.024 353.789 353.789 353.024 354.73 352.545C355.8 352 357.2 352 360 352H399.411C405.668 352 408.797 352 410.207 350.776C411.429 349.715 412.063 348.128 411.906 346.517C411.726 344.659 409.457 342.505 404.918 338.197L352.035 288.006C352.031 288.002 352.026 288 352.021 288C352.009 288 352 287.991 352 287.979V200C352 197.2 352 195.8 352.545 194.73C353.024 193.789 353.789 193.024 354.73 192.545C355.8 192 357.2 192 360 192H408C410.8 192 412.2 192 413.27 192.545C414.211 193.024 414.976 193.789 415.455 194.73C416 195.8 416 197.2 416 200V257.042Z" fill="#BDBDBD"/>
</g>
<defs>
<clipPath id="clip0_580_266">
<rect width="512" height="512" fill="white"/>
</clipPath>
</defs>
</svg>
