<svg width="512" height="512" viewBox="0 0 512 512" fill="none" xmlns="http://www.w3.org/2000/svg">
<g clip-path="url(#clip0_580_266)">
<rect y="224" width="64" height="192" rx="4.8" fill="#FFFF00"/>
<rect x="256" y="224" width="64" height="192" rx="4.8" fill="#FFFF00"/>
<rect x="350.117" y="283.141" width="64" height="187.893" rx="4.8" transform="rotate(-45 350.117 283.141)" fill="#BDBDBD"/>
<rect x="352" y="352" width="160" height="64" rx="4.8" fill="#BDBDBD"/>
<rect x="352" y="96" width="160" height="64" rx="4.8" fill="#FFFF00"/>
<rect y="448" width="192" height="64" rx="4.8" fill="#BDBDBD"/>
<path d="M64 0H120.32C123.008 0 124.352 0 125.379 0.523169C126.282 0.983361 127.017 1.71767 127.477 2.62085C128 3.64762 128 4.99175 128 7.68V56.32C128 59.0083 128 60.3524 127.477 61.3792C127.017 62.2823 126.282 63.0166 125.379 63.4768C124.352 64 123.008 64 120.32 64H64V0Z" fill="#BDBDBD"/>
<rect x="192" width="192" height="64" rx="4.8" fill="#BDBDBD"/>
<rect x="256" y="448" width="64" height="64" rx="4.8" fill="#FFFF00"/>
<path d="M0 7.68C0 4.99175 0 3.64762 0.523169 2.62085C0.983361 1.71767 1.71767 0.983361 2.62085 0.523169C3.64762 0 4.99175 0 7.68 0H64V64H7.68C4.99175 64 3.64762 64 2.62085 63.4768C1.71767 63.0166 0.983361 62.2823 0.523169 61.3792C0 60.3524 0 59.0083 0 56.32V7.68Z" fill="#FFFF00"/>
<rect x="448" width="64" height="64" rx="4.8" fill="#FFFF00"/>
<rect x="384" y="448" width="128" height="64" rx="4.8" fill="#BDBDBD"/>
<rect x="352" y="192" width="64" height="96" rx="4.8" fill="#BDBDBD"/>
<path d="M154.569 205.126C156.47 207.027 157.421 207.977 158.517 208.333C159.481 208.647 160.519 208.647 161.483 208.333C162.579 207.977 163.53 207.027 165.431 205.126L272.307 98.2494C273.137 97.4193 273.552 97.0042 274.037 96.7073C274.466 96.4441 274.935 96.2502 275.424 96.1326C275.977 96 276.564 96 277.738 96H312.32C315.008 96 316.352 96 317.379 96.5232C318.282 96.9834 319.017 97.7177 319.477 98.6208C320 99.6476 320 100.992 320 103.68V137.885C320 139.059 320 139.646 319.867 140.199C319.75 140.688 319.556 141.157 319.293 141.586C318.996 142.071 318.581 142.486 317.751 143.316L175.316 285.751C174.486 286.581 174.071 286.996 173.586 287.293C173.157 287.556 172.688 287.75 172.199 287.867C171.646 288 171.059 288 169.885 288H150.115C148.941 288 148.354 288 147.801 287.867C147.312 287.75 146.843 287.556 146.414 287.293C145.929 286.996 145.514 286.581 144.684 285.751L2.24943 143.316C1.41925 142.486 1.00417 142.071 0.707327 141.586C0.444149 141.157 0.250209 140.688 0.132624 140.199C0 139.646 0 139.059 0 137.885V103.68C0 100.992 0 99.6476 0.523169 98.6208C0.983361 97.7177 1.71767 96.9834 2.62085 96.5232C3.64762 96 4.99175 96 7.68 96H42.2622C43.4362 96 44.0233 96 44.5757 96.1326C45.0654 96.2502 45.5337 96.4441 45.9631 96.7073C46.4475 97.0042 46.8626 97.4193 47.6928 98.2494L154.569 205.126Z" fill="#FFFF00"/>
</g>
<defs>
<clipPath id="clip0_580_266">
<rect width="512" height="512" fill="white"/>
</clipPath>
</defs>
</svg>
